<svg width="38" height="34" viewBox="0 0 38 34" fill="none" xmlns="http://www.w3.org/2000/svg">
<path d="M32.3954 8.21577H37.1826V12.7801H32.3954V25.3776C32.3954 26.473 32.5795 27.2033 32.9477 27.5685C33.316 27.9336 34.0525 28.1162 35.1573 28.1162C35.5255 28.1618 35.8477 28.1162 36.216 28.0705C36.5382 28.0705 36.8604 28.0249 37.1826 27.9336V32.9544C36.6303 33.0456 35.9858 33.1369 35.3414 33.1369C34.6509 33.1826 34.0065 33.1826 33.362 33.1826C33.3189 33.1826 32.59 33.1826 32.2832 33.1369C31.5356 33.0257 30.4239 32.612 29.7334 32.2012C29.3499 31.973 28.3525 30.9461 28.2374 30.4896C27.8922 29.9191 27.7002 28.8008 27.7002 27.6141V12.7801H23.6343V8.21577H27.7002V0H32.3954V8.21577Z" fill="#030852"/>
<path d="M4.30135 12.7801H0.388672V8.21577H4.30135V7.16598C4.30135 5.11204 4.57754 3.53735 5.91245 2.16806C7.20133 0.844402 8.42116 0.0456485 11.091 5.90018e-06C11.6434 5.90018e-06 12.1727 0 12.8172 0C13.3926 0 14.014 5.90018e-06 14.5664 5.90018e-06V5.02075C13.7838 4.92947 13.0013 4.88382 12.1727 4.88382C11.2521 4.88382 10.6077 5.11204 10.2394 5.52283C9.87115 5.93362 9.68703 6.61827 9.68703 7.57677V8.21577H14.1981V12.7801H9.68703V32.6349H4.30135V12.7801ZM16.3156 15.0622H21.4711V32.6349H16.3156V15.0622ZM21.4711 12.7801H16.3156V8.21577L21.4711 8.21577V12.7801Z" fill="#030852"/>
</svg>
